<svg xmlns="http://www.w3.org/2000/svg" version="1.1" xmlns:xlink="http://www.w3.org/1999/xlink" xmlns:svgjs="http://svgjs.dev/svgjs" width="1000" height="999" viewBox="0 0 1000 999"><g transform="matrix(1,0,0,1,-0.215743440233382,-0.21552769679306039)"><svg viewBox="0 0 343 343" data-background-color="#ffffff" preserveAspectRatio="xMidYMid meet" height="999" width="1000" xmlns="http://www.w3.org/2000/svg" xmlns:xlink="http://www.w3.org/1999/xlink"><g id="tight-bounds" transform="matrix(1,0,0,1,0.0740000000000407,0.07400000000001228)"><svg viewBox="0 0 342.85155851775386 342.85155851775386" height="342.85155851775386" width="342.85155851775386"><g><svg></svg></g><g><svg viewBox="0 0 342.85155851775386 342.85155851775386" height="342.85155851775386" width="342.85155851775386"><g><path d="M0 171.426c0-94.676 76.75-171.426 171.426-171.426 94.676 0 171.426 76.75 171.426 171.426 0 94.676-76.75 171.426-171.426 171.426-94.676 0-171.426-76.75-171.426-171.426zM171.426 326.24c85.502 0 154.814-69.313 154.814-154.814 0-85.502-69.313-154.814-154.814-154.814-85.502 0-154.814 69.313-154.814 154.814 0 85.502 69.313 154.814 154.814 154.814z" data-fill-palette-color="tertiary" fill="#ee3e38" stroke="transparent"></path><ellipse rx="164.56874808852186" ry="164.56874808852186" cx="171.42577925887693" cy="171.42577925887693" fill="#ee3e38" stroke="transparent" stroke-width="0" fill-opacity="1" data-fill-palette-color="tertiary"></ellipse></g><g transform="matrix(1,0,0,1,64.84655864529837,79.32458697742116)"><svg viewBox="0 0 213.1584412271571 184.20238456291153" height="184.20238456291153" width="213.1584412271571"><g><svg viewBox="0 0 213.1584412271571 184.20238456291153" height="184.20238456291153" width="213.1584412271571"><g><svg viewBox="0 0 213.1584412271571 184.20238456291153" height="184.20238456291153" width="213.1584412271571"><g><svg viewBox="0 0 213.1584412271571 184.20238456291153" height="184.20238456291153" width="213.1584412271571"><g id="textblocktransform"><svg viewBox="0 0 213.1584412271571 184.20238456291153" height="184.20238456291153" width="213.1584412271571" id="textblock"><g><svg viewBox="0 0 213.1584412271571 184.20238456291153" height="184.20238456291153" width="213.1584412271571"><g transform="matrix(1,0,0,1,0,0)"><svg width="213.1584412271571" viewBox="0 -26.399999618530273 30.549999237060547 26.399999618530273" height="184.20238456291153" data-palette-color="#ffffff"><path d="M20.45 0L10 0 0-26.4 10.7-26.4 15.55-9.95 15.9-9.95 20.75-26.4 30.55-26.4 20.45 0Z" opacity="1" transform="matrix(1,0,0,1,0,0)" fill="#ffffff" class="wordmark-text-0" data-fill-palette-color="quaternary" id="text-0"></path></svg></g></svg></g></svg></g></svg></g><g></g></svg></g></svg></g></svg></g></svg></g><defs></defs></svg><rect width="342.85155851775386" height="342.85155851775386" fill="none" stroke="none" visibility="hidden"></rect></g></svg></g></svg>